<svg xmlns:dc="http://purl.org/dc/elements/1.1/" xmlns:cc="http://creativecommons.org/ns#" xmlns:rdf="http://www.w3.org/1999/02/22-rdf-syntax-ns#" xmlns:svg="http://www.w3.org/2000/svg" xmlns="http://www.w3.org/2000/svg" viewBox="0 0 64 80" version="1.1" xml:space="preserve" style="" x="0px" y="0px" fill-rule="evenodd" clip-rule="evenodd" stroke-linecap="round" stroke-linejoin="round" stroke-miterlimit="2"><path style="color:#000000;font-style:normal;font-variant:normal;font-weight:normal;font-stretch:normal;font-size:medium;line-height:normal;font-family:sans-serif;font-variant-ligatures:normal;font-variant-position:normal;font-variant-caps:normal;font-variant-numeric:normal;font-variant-alternates:normal;font-variant-east-asian:normal;font-feature-settings:normal;font-variation-settings:normal;text-indent:0;text-align:start;text-decoration:none;text-decoration-line:none;text-decoration-style:solid;text-decoration-color:#000000;letter-spacing:normal;word-spacing:normal;text-transform:none;writing-mode:lr-tb;direction:ltr;text-orientation:mixed;dominant-baseline:auto;baseline-shift:baseline;text-anchor:start;white-space:normal;shape-padding:0;shape-margin:0;inline-size:0;clip-rule:nonzero;display:inline;overflow:visible;visibility:visible;isolation:auto;mix-blend-mode:normal;color-interpolation:sRGB;color-interpolation-filters:linearRGB;solid-color:#000000;solid-opacity:1;vector-effect:none;fill:#000000;fill-opacity:1;fill-rule:nonzero;stroke:none;stroke-width:3px;stroke-linecap:butt;stroke-linejoin:miter;stroke-miterlimit:2;stroke-dasharray:none;stroke-dashoffset:0;stroke-opacity:1;filter-blend-mode:normal;filter-gaussianBlur-deviation:0;color-rendering:auto;image-rendering:auto;shape-rendering:auto;text-rendering:auto;enable-background:accumulate;stop-color:#000000;stop-opacity:1;opacity:1" d="M 32 6.5 A 1.5 1.5 0 0 0 30.5 8 L 30.5 34.337891 C 28.806303 33.708611 27.007146 33.039888 25.732422 32.566406 C 24.715155 32.188376 23.646496 32 22.578125 32 C 21.509754 32 20.441095 32.188376 19.423828 32.566406 C 16.476017 33.661336 11.683768 35.441969 8.4003906 36.662109 C 7.262313 37.08396 6.5 38.179442 6.5 39.392578 C 6.5 40.606252 7.261542 41.702255 8.3984375 42.125 A 1.50015 1.50015 0 0 0 8.4003906 42.125 C 9.5157433 42.539138 10.813953 43.020675 12.146484 43.515625 L 12.146484 47.677734 C 12.146484 50.739643 14.357279 53.381235 17.371094 53.919922 C 17.810633 53.998839 18.257212 54.078875 18.695312 54.15625 C 21.263912 54.615465 23.894291 54.615465 26.462891 54.15625 C 26.90039 54.078978 27.346245 53.998726 27.785156 53.919922 C 30.798971 53.381235 33.009766 50.739643 33.009766 47.677734 L 33.009766 43.517578 C 33.739883 43.246343 34.976903 42.786617 36.757812 42.125 C 37.894709 41.702255 38.65625 40.606252 38.65625 39.392578 C 38.65625 38.179442 37.895891 37.08396 36.757812 36.662109 L 36.755859 36.662109 C 35.767022 36.294646 34.606557 35.864806 33.435547 35.429688 A 1.5 1.5 0 0 0 33.5 35 L 33.5 24.658203 L 40.185547 24.658203 C 40.511268 26.962854 40.697266 29.429086 40.697266 32 C 40.697266 38.450533 39.568655 44.289135 37.830078 48.380859 C 36.96079 50.426722 35.936615 52.028332 34.910156 53.050781 C 33.883697 54.07323 32.929634 54.5 32 54.5 A 1.5 1.5 0 0 0 30.5 56 A 1.5 1.5 0 0 0 32 57.5 C 42.679116 57.5 51.841931 50.893273 55.632812 41.556641 A 1.5 1.5 0 0 0 55.769531 41.212891 C 56.882297 38.35299 57.5 35.248037 57.5 32 C 57.5 28.750425 56.881346 25.644222 55.767578 22.783203 A 1.5 1.5 0 0 0 55.630859 22.4375 C 51.849718 13.131358 42.730376 6.5406547 32.09375 6.5019531 C 32.092443 6.5019484 32.091151 6.5019577 32.089844 6.5019531 A 1.5 1.5 0 0 0 32 6.5 z M 25.683594 7.3417969 A 1.5 1.5 0 0 0 25.289062 7.3945312 C 14.461017 10.344445 6.5 20.262061 6.5 32 A 1.5 1.5 0 0 0 8 33.5 A 1.5 1.5 0 0 0 9.5 32 C 9.5 21.617939 16.53417 12.889148 26.078125 10.289062 A 1.5 1.5 0 0 0 27.130859 8.4472656 A 1.5 1.5 0 0 0 25.683594 7.3417969 z M 33.5 9.8925781 C 33.95726 10.12752 34.425685 10.46664 34.910156 10.949219 C 35.936615 11.971668 36.96079 13.573278 37.830078 15.619141 C 38.563344 17.344874 39.178901 19.396138 39.65625 21.658203 L 33.5 21.658203 L 33.5 9.8925781 z M 38.351562 10.414062 C 44.281929 12.15431 49.1906 16.266415 51.984375 21.658203 L 42.724609 21.658203 C 42.199537 18.990086 41.483134 16.547663 40.589844 14.445312 C 39.938513 12.912412 39.190535 11.56913 38.351562 10.414062 z M 20.851562 17 A 1.5 1.5 0 0 0 19.914062 17.34375 C 15.693825 20.82824 13 26.111446 13 32 A 1.5 1.5 0 0 0 14.5 33.5 A 1.5 1.5 0 0 0 16 32 C 16 27.024554 18.266456 22.59376 21.824219 19.65625 A 1.5 1.5 0 0 0 22.025391 17.544922 A 1.5 1.5 0 0 0 20.851562 17 z M 43.226562 24.658203 L 53.269531 24.658203 C 54.062811 26.959456 54.5 29.427946 54.5 32 C 54.5 34.572054 54.062811 37.040544 53.269531 39.341797 L 43.226562 39.341797 C 43.533645 37.016627 43.697266 34.553399 43.697266 32 C 43.697266 29.446601 43.533645 26.983373 43.226562 24.658203 z M 22.578125 35 C 23.292446 35 24.006767 35.125937 24.6875 35.378906 C 27.577298 36.452288 32.219142 38.177562 35.494141 39.394531 C 33.330161 40.198403 30.970703 41.074219 30.970703 41.074219 A 1.5 1.5 0 0 0 30.009766 42.701172 L 30.009766 47.677734 C 30.009766 49.307196 28.859093 50.680728 27.255859 50.966797 C 26.816027 51.045767 26.370797 51.124649 25.9375 51.201172 A 1.50015 1.50015 0 0 0 25.933594 51.203125 C 23.714193 51.59991 21.442057 51.59991 19.222656 51.203125 A 1.50015 1.50015 0 0 0 19.220703 51.201172 C 18.787406 51.124649 18.342176 51.045767 17.902344 50.966797 A 1.50015 1.50015 0 0 0 17.900391 50.966797 C 16.297157 50.680728 15.146484 49.307196 15.146484 47.677734 L 15.146484 44.630859 C 16.649836 45.189212 18.279731 45.794176 19.423828 46.21875 C 21.091744 46.83857 22.895714 46.941361 24.613281 46.544922 L 24.613281 47.126953 A 1.5 1.5 0 0 0 26.113281 48.626953 A 1.5 1.5 0 0 0 27.613281 47.126953 L 27.613281 44.3125 C 27.613281 41.53275 25.602381 39.133099 22.865234 38.650391 A 1.5 1.5 0 0 0 22.556641 38.628906 A 1.5 1.5 0 0 0 21.126953 39.867188 A 1.5 1.5 0 0 0 22.34375 41.605469 C 23.374787 41.787297 24.170716 42.516824 24.474609 43.464844 C 23.170298 43.89593 21.760708 43.886359 20.46875 43.40625 C 17.579845 42.33418 12.937661 40.610802 9.6621094 39.394531 C 12.937185 38.177533 17.578502 36.452455 20.46875 35.378906 C 21.149483 35.125937 21.863804 35 22.578125 35 z M 42.724609 42.341797 L 51.984375 42.341797 C 49.1906 47.733585 44.281929 51.84569 38.351562 53.585938 C 39.190535 52.430871 39.938513 51.087588 40.589844 49.554688 C 41.483134 47.452337 42.199537 45.009914 42.724609 42.341797 z "/></svg>