<svg xmlns="http://www.w3.org/2000/svg" data-name="Layer 1" viewBox="0 0 64 80" x="0px" y="0px"><title>course-syllabus-scheme-internet-book</title><rect x="22" y="9" width="6" height="2"/><rect x="18" y="15" width="10" height="2"/><rect x="18" y="21" width="10" height="2"/><rect x="40" y="9" width="6" height="2"/><rect x="36" y="15" width="10" height="2"/><rect x="36" y="21" width="10" height="2"/><path d="M61,6H57.638A13.821,13.821,0,0,0,48,2a13.3,13.3,0,0,0-3.489.478A13.555,13.555,0,0,0,32,5.431,13.555,13.555,0,0,0,19.489,2.478,13.3,13.3,0,0,0,16,2,13.821,13.821,0,0,0,6.362,6H3A1,1,0,0,0,2,7V31a1,1,0,0,0,1,1H14.694a19.874,19.874,0,0,0,1.311,21.956c0,.015,0,.029,0,.044h.038a19.924,19.924,0,0,0,31.924,0H48c0-.015-.005-.029-.005-.044A19.874,19.874,0,0,0,49.306,32H61a1,1,0,0,0,1-1V7A1,1,0,0,0,61,6ZM38.973,41c-.025-1.588-.109-3.13-.251-4.616,4.045-.782,7.064-2.244,8.437-4.056A17.746,17.746,0,0,1,49.962,41ZM32,60c-1.584,0-3.638-3.946-4.54-10.715a36.3,36.3,0,0,1,9.08,0C35.638,56.054,33.584,60,32,60Zm0-13a37.8,37.8,0,0,0-4.76.293c-.123-1.341-.2-2.775-.224-4.293h9.968c-.025,1.518-.1,2.952-.224,4.293A37.8,37.8,0,0,0,32,47ZM14.038,41a17.746,17.746,0,0,1,2.8-8.672c1.373,1.812,4.392,3.273,8.437,4.056-.142,1.485-.226,3.027-.251,4.616ZM13,30H9.869A11.671,11.671,0,0,1,13,28.635Zm16.1,0H16.905A11.5,11.5,0,0,1,29.1,30Zm9.4,4.389Q38.326,33.162,38.1,32h6.577A15.732,15.732,0,0,1,38.495,34.389ZM36.066,32q.261,1.3.452,2.687a35.674,35.674,0,0,1-9.036,0q.191-1.389.452-2.687ZM19.321,32H25.9q-.224,1.162-.393,2.389A15.763,15.763,0,0,1,19.321,32Zm7.706,9q.036-2.223.231-4.3A37.215,37.215,0,0,0,32,37a37.227,37.227,0,0,0,4.742-.3q.2,2.079.231,4.305Zm7.878-11A11.5,11.5,0,0,1,47.1,30ZM51,28.635A11.671,11.671,0,0,1,54.131,30H51ZM56,7.2V28.846a13.712,13.712,0,0,0-5-2.256V6.769a1,1,0,0,0-.3-.715,14.608,14.608,0,0,0-2.622-2.03A11.866,11.866,0,0,1,56,7.2Zm-7,0V28.851a13.5,13.5,0,0,0-16,0V7.2A11.629,11.629,0,0,1,49,7.2Zm-18,0V28.851a13.5,13.5,0,0,0-16,0V7.2A11.629,11.629,0,0,1,31,7.2ZM8,7.2a11.858,11.858,0,0,1,7.922-3.173A14.6,14.6,0,0,0,13.3,6.054a1,1,0,0,0-.3.715V26.59a13.712,13.712,0,0,0-5,2.256ZM4,8H6V30H4ZM14.051,43H25.009c.027,1.546.116,3.1.264,4.61-4,.771-7.033,2.225-8.424,4.07A17.866,17.866,0,0,1,14.051,43Zm4.064,10.443c.554-1.506,3.287-3.025,7.393-3.838.567,4.13,1.6,7.805,3.077,10.06A18.011,18.011,0,0,1,18.115,53.443Zm17.3,6.222c1.474-2.255,2.51-5.93,3.077-10.06,4.106.813,6.839,2.332,7.393,3.838A18.011,18.011,0,0,1,35.415,59.665ZM38.727,47.61c.148-1.514.237-3.064.264-4.61H49.949a17.866,17.866,0,0,1-2.8,8.68C45.76,49.835,42.73,48.381,38.727,47.61ZM60,30H58V8h2Z"/></svg>