<svg xmlns:dc="http://purl.org/dc/elements/1.1/" xmlns:cc="http://creativecommons.org/ns#" xmlns:rdf="http://www.w3.org/1999/02/22-rdf-syntax-ns#" xmlns:svg="http://www.w3.org/2000/svg" xmlns="http://www.w3.org/2000/svg" xmlns:sodipodi="http://sodipodi.sourceforge.net/DTD/sodipodi-0.dtd" xmlns:inkscape="http://www.inkscape.org/namespaces/inkscape" version="1.1" x="0px" y="0px" viewBox="0 0 100 125"><g transform="translate(0,-952.36218)"><path style="text-indent:0;text-transform:none;direction:ltr;block-progression:tb;baseline-shift:baseline;color:#000000;enable-background:accumulate;" d="M 28 6 C 22.41461 6 17.596596 10.519067 17.0625 16 L 17 16 L 17 85 C 17 89.9514 21.048594 94 26 94 L 81 94 A 2.0002 2.0002 0 0 0 83 92 L 83 26.375 A 2.0002 2.0002 0 0 0 81.625 24.09375 C 78.843771 23.16667 77.185005 22.0504 76.25 20.9375 C 75.314995 19.8246 74.966384 18.67427 75 17.03125 A 2.0002 2.0002 0 0 0 75 16.9375 C 74.9664 15.29447 75.314998 14.14415 76.25 13.03125 C 77.185002 11.91835 78.843773 10.80208 81.625 9.875 A 2.0002 2.0002 0 0 0 81 6 L 28 6 z M 28 10 L 73.71875 10 C 73.564871 10.16057 73.328795 10.26932 73.1875 10.4375 C 71.623093 12.29956 70.970776 14.6125 71 16.9375 C 70.99936 16.9688 71.000393 17.00005 71 17.03125 C 70.97075 19.35626 71.623086 21.66919 73.1875 23.53125 C 73.337831 23.71018 73.585421 23.82968 73.75 24 L 28 24 C 24.505928 24 21 20.49403 21 17 C 21 13.50597 24.505928 10 28 10 z M 21 25.375 C 22.923336 26.997793 25.377446 28 28 28 L 79 28 L 79 90 L 26 90 C 23.195406 90 21 87.8046 21 85 L 21 25.375 z M 31 43 C 29.89543 43 29 43.89543 29 45 C 29 46.10457 29.89543 47 31 47 L 69 47 C 70.10457 47 71 46.10457 71 45 C 71 43.89543 70.10457 43 69 43 L 31 43 z M 31 57 C 29.89543 57 29 57.8954 29 59 C 29 60.1046 29.89543 61 31 61 L 69 61 C 70.10457 61 71 60.1046 71 59 C 71 57.8954 70.10457 57 69 57 L 31 57 z M 31 71 C 29.89543 71 29 71.8954 29 73 C 29 74.1046 29.89543 75 31 75 L 69 75 C 70.10457 75 71 74.1046 71 73 C 71 71.8954 70.10457 71 69 71 L 31 71 z " transform="translate(0,952.36218)" fill="#000000" fill-opacity="1" stroke="none" marker="none" visibility="visible" display="inline" overflow="visible"/></g></svg>